<svg width="23" height="24" viewBox="0 0 23 24" fill="none" xmlns="http://www.w3.org/2000/svg">
<path d="M11.5001 12.9583C12.0294 12.9583 12.4584 12.5293 12.4584 12C12.4584 11.4707 12.0294 11.0417 11.5001 11.0417C10.9708 11.0417 10.5417 11.4707 10.5417 12C10.5417 12.5293 10.9708 12.9583 11.5001 12.9583Z" stroke="white" stroke-width="1.5" stroke-linecap="round" stroke-linejoin="round"/>
<path d="M11.5001 6.25001C12.0294 6.25001 12.4584 5.82095 12.4584 5.29168C12.4584 4.7624 12.0294 4.33334 11.5001 4.33334C10.9708 4.33334 10.5417 4.7624 10.5417 5.29168C10.5417 5.82095 10.9708 6.25001 11.5001 6.25001Z" stroke="white" stroke-width="1.5" stroke-linecap="round" stroke-linejoin="round"/>
<path d="M11.5001 19.6667C12.0294 19.6667 12.4584 19.2376 12.4584 18.7083C12.4584 18.1791 12.0294 17.75 11.5001 17.75C10.9708 17.75 10.5417 18.1791 10.5417 18.7083C10.5417 19.2376 10.9708 19.6667 11.5001 19.6667Z" stroke="white" stroke-width="1.5" stroke-linecap="round" stroke-linejoin="round"/>
</svg>
