<svg width="26" height="24" viewBox="0 0 26 24" fill="none" xmlns="http://www.w3.org/2000/svg">
<path d="M19.8637 11H5.22738C4.07261 11 3.13647 11.8954 3.13647 13V20C3.13647 21.1046 4.07261 22 5.22738 22H19.8637C21.0185 22 21.9547 21.1046 21.9547 20V13C21.9547 11.8954 21.0185 11 19.8637 11Z" stroke="white" stroke-width="1.5" stroke-linecap="round" stroke-linejoin="round"/>
<path d="M7.31812 11V7C7.31812 5.67392 7.86884 4.40215 8.84915 3.46447C9.82945 2.52678 11.159 2 12.5454 2C13.9317 2 15.2613 2.52678 16.2416 3.46447C17.2219 4.40215 17.7727 5.67392 17.7727 7V11" stroke="white" stroke-width="1.5" stroke-linecap="round" stroke-linejoin="round"/>
</svg>
