<svg width="16" height="16" viewBox="0 0 16 16" fill="none" xmlns="http://www.w3.org/2000/svg">
<rect width="16" height="16" rx="8" fill="#231B51"/>
<mask id="path-2-inside-1_1064_1402" fill="white">
<path d="M4.87068 4.79099C4.73267 4.6571 4.50156 4.75486 4.50151 4.94714L4.5 11.1129C4.49995 11.3084 4.73762 11.4048 4.87377 11.2646L8.10881 7.93244L4.87068 4.79099Z"/>
<path d="M11.1293 4.79099C11.2673 4.6571 11.4984 4.75486 11.4985 4.94714L11.5 11.1129C11.5 11.3084 11.2624 11.4048 11.1262 11.2646L7.89119 7.93244L11.1293 4.79099Z"/>
</mask>
<path d="M4.87068 4.79099C4.73267 4.6571 4.50156 4.75486 4.50151 4.94714L4.5 11.1129C4.49995 11.3084 4.73762 11.4048 4.87377 11.2646L8.10881 7.93244L4.87068 4.79099Z" fill="white"/>
<path d="M11.1293 4.79099C11.2673 4.6571 11.4984 4.75486 11.4985 4.94714L11.5 11.1129C11.5 11.3084 11.2624 11.4048 11.1262 11.2646L7.89119 7.93244L11.1293 4.79099Z" fill="white"/>
<path d="M8.10881 7.93244L154.607 150.161L296.888 3.60914L150.283 -138.618L8.10881 7.93244ZM4.5 11.1129L-199.683 11.0628L4.5 11.1129ZM4.87377 11.2646L-141.624 -130.964L4.87377 11.2646ZM4.50151 4.94714L208.684 4.99724L4.50151 4.94714ZM4.87068 4.79099L147.045 -141.759L4.87068 4.79099ZM7.89119 7.93244L-134.283 -138.618L-280.888 3.60914L-138.607 150.161L7.89119 7.93244ZM11.5 11.1129L215.683 11.0628V11.0628L11.5 11.1129ZM11.1262 11.2646L-135.372 153.493L11.1262 11.2646ZM11.4985 4.94714L-192.684 4.99724V4.99725L11.4985 4.94714ZM11.1293 4.79099L-131.045 -141.759L11.1293 4.79099ZM-199.681 4.89704L-199.683 11.0628L208.683 11.163L208.684 4.99724L-199.681 4.89704ZM151.372 153.493L154.607 150.161L-138.389 -134.296L-141.624 -130.964L151.372 153.493ZM150.283 -138.618L147.045 -141.759L-137.304 151.341L-134.066 154.483L150.283 -138.618ZM-199.683 11.0628C-199.728 194.65 23.4903 285.213 151.372 153.493L-141.624 -130.964C-14.0151 -262.403 208.728 -172.033 208.683 11.163L-199.683 11.0628ZM208.684 4.99724C208.64 185.199 -7.9642 276.819 -137.304 151.341L147.045 -141.759C17.4296 -267.505 -199.637 -175.69 -199.681 4.89704L208.684 4.99724ZM-192.684 4.99725L-192.683 11.163L215.683 11.0628L215.681 4.89702L-192.684 4.99725ZM157.624 -130.964L154.389 -134.296L-138.607 150.161L-135.372 153.493L157.624 -130.964ZM150.066 154.483L153.304 151.341L-131.045 -141.759L-134.283 -138.618L150.066 154.483ZM-192.683 11.163C-192.728 -172.033 30.0153 -262.403 157.624 -130.964L-135.372 153.493C-7.49055 285.213 215.728 194.65 215.683 11.0628L-192.683 11.163ZM215.681 4.89704C215.637 -175.69 -1.42948 -267.505 -131.045 -141.759L153.304 151.341C23.9641 276.819 -192.64 185.199 -192.684 4.99724L215.681 4.89704Z" fill="white" mask="url(#path-2-inside-1_1064_1402)"/>
</svg>
