<svg width="141" height="24" viewBox="0 0 141 24" fill="none" xmlns="http://www.w3.org/2000/svg">
<path fill-rule="evenodd" clip-rule="evenodd" d="M0 5.95512V17.9997L5.36581e-05 17.9997V18.0449L10.4327 24.0001L20.8654 18.0449V6.00037L20.8652 6.00044V5.95512L10.4327 4.35498e-05V0L10.4326 2.17749e-05L10.4326 0V4.35498e-05L0 5.95512Z" fill="white"/>
<path fill-rule="evenodd" clip-rule="evenodd" d="M6.59063 9.68518V9.69559L6.59979 9.69035L10.518 11.9049L14.3545 9.69041L14.3636 9.69571V9.68516L14.3636 9.68515V5.19556L14.3636 5.19557V5.15137L10.5181 2.90459V2.90442L6.59063 5.15125V5.19559L6.59058 5.19556V9.68515L6.59063 9.68518Z" fill="#4323EE"/>
<path d="M47.5714 3H44.2688L38.1176 12.2269L31.9159 3H28.8655V20.6471H32.1176V8.57143L37.084 16.0588H39.126L44.3445 8.52101V20.6471H47.5714V3Z" fill="white"/>
<path d="M56.1938 21C59.6224 21 61.1098 19.0588 61.8156 17.7227L59.219 16.3613C58.7904 17.3193 58.0593 18.2269 56.2946 18.2269C54.5299 18.2269 53.1938 17.042 53.1182 15.3277H62.219V14.2437C62.219 10.4118 59.8241 7.78992 56.1434 7.78992C52.4123 7.78992 49.8913 10.3109 49.8913 14.2437V14.5462C49.8913 18.479 52.4375 21 56.1938 21ZM53.1434 12.958C53.3703 11.521 54.4039 10.563 56.1182 10.563C57.7568 10.563 58.8409 11.521 58.9921 12.958H53.1434Z" fill="white"/>
<path d="M66.165 20.6471H72.9717V18.0252H69.3415V10.7647H72.9717V8.14286H69.3415V4.2605H66.165V8.14286H63.0389V10.7647H66.165V20.6471Z" fill="white"/>
<path d="M79.3189 21C81.9408 21 82.7223 19.5882 82.9492 18.958H83.4282V20.6471H87.6887V18.0252H85.9744V12.605C85.9744 9.47899 83.9072 7.78992 80.6299 7.78992C77.3778 7.78992 75.7391 9.42857 75.1341 11.3193L78.0584 12.3025C78.2853 11.1681 78.9912 10.3613 80.5794 10.3613C82.1929 10.3613 82.8988 11.2185 82.8988 12.3782V13.084H79.4702C76.6467 13.084 74.6299 14.4202 74.6299 16.9916C74.6299 19.563 76.6467 21 79.3189 21ZM77.8063 16.8908C77.8063 15.9832 78.5122 15.4538 79.6971 15.4538H82.8988V15.7059C82.8988 17.3697 81.6383 18.4286 79.8736 18.4286C78.5122 18.4286 77.8063 17.7983 77.8063 16.8908Z" fill="white"/>
<path d="M92.9355 20.6471H98.1288L102.868 3H99.4397L95.5322 17.7479L91.6246 3H88.196L92.9355 20.6471Z" fill="white"/>
<path d="M109.773 21C113.504 21 116.328 18.6303 116.328 14.5966V14.1933C116.328 10.1597 113.504 7.78992 109.773 7.78992C106.042 7.78992 103.218 10.1597 103.218 14.1933V14.5966C103.218 18.6303 106.042 21 109.773 21ZM106.395 14.521V14.2689C106.395 11.9244 107.807 10.6134 109.773 10.6134C111.739 10.6134 113.151 11.9244 113.151 14.2689V14.521C113.151 16.8655 111.714 18.1765 109.773 18.1765C107.832 18.1765 106.395 16.8655 106.395 14.521Z" fill="white"/>
<path d="M120.378 20.6471H127.185V18.0252H123.555V10.7647H127.185V8.14286H123.555V4.2605H120.378V8.14286H117.252V10.7647H120.378V20.6471Z" fill="white"/>
<path d="M134.904 21C138.333 21 139.82 19.0588 140.526 17.7227L137.93 16.3613C137.501 17.3193 136.77 18.2269 135.005 18.2269C133.241 18.2269 131.904 17.042 131.829 15.3277H140.93V14.2437C140.93 10.4118 138.535 7.78992 134.854 7.78992C131.123 7.78992 128.602 10.3109 128.602 14.2437V14.5462C128.602 18.479 131.148 21 134.904 21ZM131.854 12.958C132.081 11.521 133.114 10.563 134.829 10.563C136.467 10.563 137.551 11.521 137.703 12.958H131.854Z" fill="white"/>
</svg>
